<svg width="60" height="60" viewBox="0 0 60 60" fill="none" xmlns="http://www.w3.org/2000/svg">
    <rect width="60" height="60" fill="#E5E5E5"/>
    <g clip-path="url(#clip0)">
        <path d="M0 0H60V60H0V0Z" fill="white"/>
        <rect width="60" height="60" rx="8" fill="url(#paint0_linear)"/>
        <g opacity="0.5">
            <g filter="url(#filter0_f)">
                <path d="M5.39414 19.5778C4.63857 17.5019 5.70892 15.2066 7.78483 14.451L28.4581 6.92655C30.534 6.17098 32.8294 7.24133 33.5849 9.31724L45.2136 41.2668C45.9692 43.3427 44.8988 45.6381 42.8229 46.3936L22.1497 53.9181C20.0738 54.6737 17.7784 53.6033 17.0228 51.5274L5.39414 19.5778Z"
                      fill="black" fill-opacity="0.33"/>
            </g>
            <path d="M4.36808 16.7588C3.61251 14.6829 4.68286 12.3875 6.75877 11.6319L27.432 4.10748C29.5079 3.35191 31.8033 4.42226 32.5589 6.49817L44.1875 38.4477C44.9431 40.5236 43.8728 42.819 41.7969 43.5746L21.1236 51.099C19.0477 51.8546 16.7523 50.7842 15.9968 48.7083L4.36808 16.7588Z"
                  fill="white"/>
            <path d="M9.75058 16.9281L28.5444 10.0877L29.2285 11.967L10.4346 18.8074L9.75058 16.9281Z" fill="#513B5B"/>
            <path d="M11.4607 21.6265L27.6917 15.7189L28.3758 17.5983L12.1447 23.5059L11.4607 21.6265Z" fill="#513B5B"/>
            <path d="M13.1708 26.325L24.4471 22.2207L25.1311 24.1001L13.8548 28.2044L13.1708 26.325Z" fill="#513B5B"/>
            <path d="M22.4019 39.992C22.213 39.473 22.4806 38.8992 22.9995 38.7103L32.3965 35.2901C32.9154 35.1012 33.4893 35.3688 33.6782 35.8877L35.0463 39.6465C35.2351 40.1655 34.9676 40.7393 34.4486 40.9282L25.0517 44.3484C24.5327 44.5373 23.9588 44.2697 23.7699 43.7508L22.4019 39.992Z"
                  fill="#513B5B"/>
            <path fill-rule="evenodd" clip-rule="evenodd"
                  d="M25.9879 32.3017C24.95 32.6795 24.4148 33.8272 24.7926 34.8651L25.8186 37.6842L23.9392 38.3683L22.9132 35.5492C22.1576 33.4733 23.228 31.1779 25.3039 30.4223C27.3798 29.6668 29.6752 30.7371 30.4307 32.813L31.4568 35.6321L29.5774 36.3161L28.5513 33.4971C28.1736 32.4591 27.0259 31.9239 25.9879 32.3017Z"
                  fill="#513B5B"/>
        </g>
        <g opacity="0.5">
            <g filter="url(#filter1_f)">
                <path d="M26.0777 16.8937C26.4613 14.7181 28.5359 13.2654 30.7115 13.649L52.3773 17.4693C54.5529 17.8529 56.0055 19.9275 55.6219 22.1031L49.7179 55.5866C49.3343 57.7621 47.2596 59.2148 45.0841 58.8312L23.4183 55.0109C21.2427 54.6273 19.79 52.5527 20.1736 50.3771L26.0777 16.8937Z"
                      fill="black" fill-opacity="0.33"/>
            </g>
            <path d="M26.5986 13.9392C26.9822 11.7637 29.0569 10.311 31.2324 10.6946L52.8982 14.5149C55.0738 14.8985 56.5265 16.9731 56.1429 19.1487L50.2388 52.6321C49.8552 54.8077 47.7806 56.2604 45.605 55.8768L23.9392 52.0565C21.7636 51.6729 20.311 49.5983 20.6946 47.4227L26.5986 13.9392Z"
                  fill="white"/>
            <path d="M31.1754 16.7771L50.8715 20.25L50.5242 22.2197L30.8281 18.7467L31.1754 16.7771Z" fill="#513B5B"/>
            <path d="M30.3071 21.7011L47.3174 24.7005L46.9701 26.6701L29.9598 23.6707L30.3071 21.7011Z" fill="#513B5B"/>
            <path d="M29.4389 26.6252L41.2566 28.7089L40.9093 30.6786L29.0916 28.5948L29.4389 26.6252Z" fill="#513B5B"/>
            <path d="M30.5997 43.0767C30.6956 42.5328 31.2143 42.1696 31.7582 42.2655L41.6063 44.002C42.1502 44.0979 42.5133 44.6166 42.4174 45.1605L41.7228 49.0997C41.6269 49.6436 41.1083 50.0068 40.5644 49.9108L30.7163 48.1744C30.1724 48.0785 29.8092 47.5598 29.9051 47.0159L30.5997 43.0767Z"
                  fill="#513B5B"/>
            <path fill-rule="evenodd" clip-rule="evenodd"
                  d="M37.5505 38.2097C36.4627 38.0179 35.4254 38.7442 35.2335 39.832L34.7126 42.7865L32.743 42.4392L33.2639 39.4847C33.6475 37.3092 35.7222 35.8565 37.8978 36.2401C40.0733 36.6237 41.526 38.6983 41.1424 40.8739L40.6215 43.8283L38.6518 43.481L39.1728 40.5266C39.3646 39.4388 38.6382 38.4015 37.5505 38.2097Z"
                  fill="#513B5B"/>
        </g>
        <g filter="url(#filter2_f)">
            <path d="M15 17C15 14.7909 16.7909 13 19 13H41C43.2091 13 45 14.7909 45 17V51C45 53.2091 43.2091 55 41 55H19C16.7909 55 15 53.2091 15 51L15 17Z"
                  fill="black" fill-opacity="0.33"/>
        </g>
        <path d="M15 14C15 11.7909 16.7909 10 19 10H41C43.2091 10 45 11.7909 45 14V48C45 50.2091 43.2091 52 41 52H19C16.7909 52 15 50.2091 15 48L15 14Z"
              fill="white"/>
        <path d="M20 16H40V18H20V16Z" fill="#513B5B"/>
        <path d="M20 21H37.2727V23H20V21Z" fill="#513B5B"/>
        <path d="M20 26H32V28H20V26Z" fill="#513B5B"/>
        <path d="M24 42C24 41.4477 24.4477 41 25 41H35C35.5523 41 36 41.4477 36 42V46C36 46.5523 35.5523 47 35 47H25C24.4477 47 24 46.5523 24 46V42Z"
              fill="#513B5B"/>
        <path fill-rule="evenodd" clip-rule="evenodd"
              d="M30 36C28.8954 36 28 36.8954 28 38V41H26V38C26 35.7909 27.7909 34 30 34C32.2091 34 34 35.7909 34 38V41H32V38C32 36.8954 31.1046 36 30 36Z"
              fill="#513B5B"/>
    </g>
    <defs>
        <filter id="filter0_f" x="0.026062" y="1.55847" width="50.5556" height="57.7277" filterUnits="userSpaceOnUse"
                color-interpolation-filters="sRGB">
            <feFlood flood-opacity="0" result="BackgroundImageFix"/>
            <feBlend mode="normal" in="SourceGraphic" in2="BackgroundImageFix" result="shape"/>
            <feGaussianBlur stdDeviation="2" result="effect1_foregroundBlur"/>
        </filter>
        <filter id="filter1_f" x="15.4791" y="8.95442" width="44.8375" height="54.5714" filterUnits="userSpaceOnUse"
                color-interpolation-filters="sRGB">
            <feFlood flood-opacity="0" result="BackgroundImageFix"/>
            <feBlend mode="normal" in="SourceGraphic" in2="BackgroundImageFix" result="shape"/>
            <feGaussianBlur stdDeviation="2" result="effect1_foregroundBlur"/>
        </filter>
        <filter id="filter2_f" x="11" y="9" width="38" height="50" filterUnits="userSpaceOnUse"
                color-interpolation-filters="sRGB">
            <feFlood flood-opacity="0" result="BackgroundImageFix"/>
            <feBlend mode="normal" in="SourceGraphic" in2="BackgroundImageFix" result="shape"/>
            <feGaussianBlur stdDeviation="2" result="effect1_foregroundBlur"/>
        </filter>
        <linearGradient id="paint0_linear" x1="1.01514e-07" y1="60" x2="60" y2="1.01514e-07"
                        gradientUnits="userSpaceOnUse">
            <stop stop-color="#C20F85"/>
            <stop offset="1" stop-color="#03969F"/>
        </linearGradient>
        <clipPath id="clip0">
            <path d="M0 0H60V60H0V0Z" fill="white"/>
        </clipPath>
    </defs>
</svg>
